<svg width="1440" height="1320" viewBox="0 0 1440 1320" fill="none" xmlns="http://www.w3.org/2000/svg">
<path d="M256.466 39.8421C216.986 -32.3155 10.084 34.8332 0 39.8421V1189H1441V39.8421C1441 39.8421 1346.2 -20.6663 1263.87 39.8421C1181.54 100.35 1038.34 103.851 950.022 39.8421C861.706 -24.1668 811.81 -1.1636 750.438 39.8421C689.065 80.8477 652.142 53.3439 547.859 39.8421C443.577 26.3402 295.946 112 256.466 39.8421Z" fill="#03A9F4"/>
<path d="M256.466 83.8421C216.986 11.6845 10.084 78.8332 0 83.8421V1233H1441V83.8421C1441 83.8421 1346.2 23.3337 1263.87 83.8421C1181.54 144.35 1038.34 147.851 950.022 83.8421C861.706 19.8332 811.81 42.8364 750.438 83.8421C689.065 124.848 652.142 97.3439 547.859 83.8421C443.577 70.3402 295.946 156 256.466 83.8421Z" fill="#94CFE9"/>
<path d="M256.466 129.842C216.986 57.6845 10.084 124.833 0 129.842V1279H1441V129.842C1441 129.842 1346.2 69.3337 1263.87 129.842C1181.54 190.35 1038.34 193.851 950.022 129.842C861.706 65.8332 811.81 88.8364 750.438 129.842C689.065 170.848 652.142 143.344 547.859 129.842C443.577 116.34 295.946 202 256.466 129.842Z" fill="#CEE8F3"/>
<path d="M256.466 170.842C216.986 98.6845 10.084 165.833 0 170.842V1320H1441V170.842C1441 170.842 1346.2 110.334 1263.87 170.842C1181.54 231.35 1038.34 234.851 950.022 170.842C861.706 106.833 811.81 129.836 750.438 170.842C689.065 211.848 652.142 184.344 547.859 170.842C443.577 157.34 295.946 243 256.466 170.842Z" fill="#F5F5F5"/>
</svg>
