<svg width="1441" height="252" viewBox="0 0 1441 252" fill="none" xmlns="http://www.w3.org/2000/svg">
<path d="M256.466 39.8421C216.986 -32.3155 10.084 34.8332 0 39.8421V138.5H1441V39.8421C1441 39.8421 1346.2 -20.6663 1263.87 39.8421C1181.54 100.35 1038.34 103.851 950.022 39.8421C861.706 -24.1668 811.81 -1.1636 750.438 39.8421C689.065 80.8477 652.142 53.3439 547.859 39.8421C443.577 26.3402 295.946 112 256.466 39.8421Z" fill="#03A9F4"/>
<path d="M256.466 83.8421C216.986 11.6845 10.084 78.8332 0 83.8421V157C0 157 219.432 101 256.466 157C293.5 213 547.859 157 547.859 157H750.438C750.438 157 877.544 90.5 950.022 157C1022.5 223.5 1263.87 157 1263.87 157H1441V83.8421C1441 83.8421 1346.2 23.3337 1263.87 83.8421C1181.54 144.35 1038.34 147.851 950.022 83.8421C861.706 19.8332 811.81 42.8364 750.438 83.8421C689.065 124.848 652.142 97.3439 547.859 83.8421C443.577 70.3402 295.946 156 256.466 83.8421Z" fill="#94CFE9"/>
<path d="M256.466 129.842C216.986 57.6845 10.084 124.833 0 129.842V199C0 199 163.432 124 256.466 199C349.5 274 484.719 169.252 547.859 199C611 228.748 684.875 236 750.438 199C816 162 868.544 127 950.022 199C1031.5 271 1171.74 268.158 1263.87 199C1356 129.842 1441 199 1441 199V129.842C1441 129.842 1346.2 69.3337 1263.87 129.842C1181.54 190.35 1038.34 193.851 950.022 129.842C861.706 65.8332 811.81 88.8364 750.438 129.842C689.065 170.848 652.142 143.344 547.859 129.842C443.577 116.34 295.946 202 256.466 129.842Z" fill="#CEE8F3"/>
</svg>
